<?xml version="1.0" encoding="UTF-8"?>
<!DOCTYPE svg PUBLIC "-//W3C//DTD SVG 1.1//EN" "http://www.w3.org/Graphics/SVG/1.1/DTD/svg11.dtd">
<svg xmlns="http://www.w3.org/2000/svg" version="1.1" width="225px" height="225px" style="shape-rendering:geometricPrecision; text-rendering:geometricPrecision; image-rendering:optimizeQuality; fill-rule:evenodd; clip-rule:evenodd" xmlns:xlink="http://www.w3.org/1999/xlink">
<g><path style="opacity:0.231" fill="#92adaa" d="M 31.5,-0.5 C 32.5,-0.5 33.5,-0.5 34.5,-0.5C 33.4863,0.673734 32.153,1.3404 30.5,1.5C 30.8333,0.833333 31.1667,0.166667 31.5,-0.5 Z"/></g>
<g><path style="opacity:0.224" fill="#788f98" d="M 41.5,-0.5 C 41.8333,-0.5 42.1667,-0.5 42.5,-0.5C 43.1098,0.391047 43.4431,1.39105 43.5,2.5C 42.0937,2.02694 41.427,1.02694 41.5,-0.5 Z"/></g>
<g><path style="opacity:0.325" fill="#5b6f77" d="M 30.5,1.5 C 29.0892,3.91395 27.0892,5.58062 24.5,6.5C 25.9108,4.08605 27.9108,2.41938 30.5,1.5 Z"/></g>
<g><path style="opacity:0.086" fill="#cad9de" d="M 131.5,7.5 C 130.577,6.69708 129.577,6.53042 128.5,7C 126.934,9.32558 125.268,11.4922 123.5,13.5C 124.072,9.65931 126.072,6.99265 129.5,5.5C 130.713,5.74716 131.38,6.41383 131.5,7.5 Z"/></g>
<g><path style="opacity:0.384" fill="#8da7ad" d="M 102.5,15.5 C 101.375,12.8215 99.7081,10.4882 97.5,8.5C 95.7162,11.3052 94.3829,14.3052 93.5,17.5C 93.5467,14.4318 94.0467,11.4318 95,8.5C 97.276,5.9364 99.276,6.26973 101,9.5C 101.813,11.4357 102.313,13.4357 102.5,15.5 Z"/></g>
<g><path style="opacity:0.082" fill="#94b8ba" d="M 44.5,4.5 C 45.7682,6.90517 46.4349,9.57184 46.5,12.5C 44.9605,10.1617 44.2938,7.49508 44.5,4.5 Z"/></g>
<g><path style="opacity:0.996" fill="#191d15" d="M 131.5,7.5 C 131.565,10.4282 132.232,13.0948 133.5,15.5C 134.687,18.9458 135.354,22.6125 135.5,26.5C 135.298,28.9892 135.798,31.3225 137,33.5C 138.292,34.7911 139.458,34.7911 140.5,33.5C 144.836,30.4905 148.836,27.1572 152.5,23.5C 154.833,21.8333 156.833,19.8333 158.5,17.5C 162.49,16.8238 164.157,18.4905 163.5,22.5C 161.271,34.4359 159.604,46.4359 158.5,58.5C 157.5,58.5 156.5,58.5 155.5,58.5C 157.126,55.7543 157.793,52.7543 157.5,49.5C 158.124,42.8977 159.124,36.231 160.5,29.5C 160.5,28.5 160.5,27.5 160.5,26.5C 161.797,24.3066 161.797,21.9732 160.5,19.5C 154.764,24.5691 149.431,29.9024 144.5,35.5C 139.22,39.0165 135.72,37.6831 134,31.5C 133.817,28.6353 133.317,25.9686 132.5,23.5C 132.152,19.7423 131.485,16.0756 130.5,12.5C 130.719,11.325 130.386,10.325 129.5,9.5C 127.311,11.8867 125.644,14.5534 124.5,17.5C 120.415,23.4322 116.082,29.2655 111.5,35C 109.741,35.7975 108.074,35.6309 106.5,34.5C 105.004,30.6472 103.338,26.9805 101.5,23.5C 101.5,23.1667 101.5,22.8333 101.5,22.5C 101.242,18.5598 100.076,14.8931 98,11.5C 95.2624,22.5609 92.7624,33.5609 90.5,44.5C 90.6716,43.5084 90.3382,42.8417 89.5,42.5C 90.4918,37.5484 91.1584,32.5484 91.5,27.5C 93.0114,24.4557 93.678,21.1224 93.5,17.5C 94.3829,14.3052 95.7162,11.3052 97.5,8.5C 99.7081,10.4882 101.375,12.8215 102.5,15.5C 102.32,19.2856 103.32,22.619 105.5,25.5C 106.363,27.4214 107.029,29.4214 107.5,31.5C 110.287,34.2961 112.287,33.6295 113.5,29.5C 114.906,29.0269 115.573,28.0269 115.5,26.5C 116.906,26.0269 117.573,25.0269 117.5,23.5C 117.328,22.5084 117.662,21.8417 118.5,21.5C 119.906,21.0269 120.573,20.0269 120.5,18.5C 122.25,17.3406 123.25,15.674 123.5,13.5C 125.268,11.4922 126.934,9.32558 128.5,7C 129.577,6.53042 130.577,6.69708 131.5,7.5 Z"/></g>
<g><path style="opacity:0.243" fill="#97a1a1" d="M 131.5,7.5 C 133.223,9.78003 133.889,12.4467 133.5,15.5C 132.232,13.0948 131.565,10.4282 131.5,7.5 Z"/></g>
<g><path style="opacity:1" fill="#cbcd50" d="M 130.5,12.5 C 131.485,16.0756 132.152,19.7423 132.5,23.5C 130.777,21.22 130.111,18.5533 130.5,15.5C 129.5,15.5 128.5,15.5 127.5,15.5C 127.5,13.5 128.5,12.5 130.5,12.5 Z"/></g>
<g><path style="opacity:0.071" fill="#b0c3c4" d="M 123.5,13.5 C 123.25,15.674 122.25,17.3406 120.5,18.5C 120.75,16.326 121.75,14.6594 123.5,13.5 Z"/></g>
<g><path style="opacity:1" fill="#c2c47d" d="M 130.5,12.5 C 128.5,12.5 127.5,13.5 127.5,15.5C 126.5,16.1667 125.5,16.8333 124.5,17.5C 125.644,14.5534 127.311,11.8867 129.5,9.5C 130.386,10.325 130.719,11.325 130.5,12.5 Z"/></g>
<g><path style="opacity:0.075" fill="#a2b9be" d="M 93.5,17.5 C 93.678,21.1224 93.0114,24.4557 91.5,27.5C 91.5488,23.9219 92.2154,20.5885 93.5,17.5 Z"/></g>
<g><path style="opacity:0.439" fill="#929fa6" d="M 102.5,15.5 C 103.87,18.6189 104.87,21.9523 105.5,25.5C 103.32,22.619 102.32,19.2856 102.5,15.5 Z"/></g>
<g><path style="opacity:0.137" fill="#8da4a7" d="M 120.5,18.5 C 120.573,20.0269 119.906,21.0269 118.5,21.5C 118.427,19.9731 119.094,18.9731 120.5,18.5 Z"/></g>
<g><path style="opacity:0.149" fill="#c2cacf" d="M 158.5,17.5 C 156.833,19.8333 154.833,21.8333 152.5,23.5C 153.5,20.5 155.5,18.5 158.5,17.5 Z"/></g>
<g><path style="opacity:0.922" fill="#32353d" d="M 24.5,6.5 C 24.5,7.5 24.5,8.5 24.5,9.5C 21.1057,15.3804 18.1057,21.3804 15.5,27.5C 14.5313,28.2033 13.5313,29.5366 12.5,31.5C 14.1369,21.8969 18.1369,13.5635 24.5,6.5 Z"/></g>
<g><path style="opacity:1" fill="#e5e76c" d="M 160.5,26.5 C 160.5,25.5 160.5,24.5 160.5,23.5C 159.448,23.3505 158.448,23.5172 157.5,24C 154.936,27.91 151.936,31.5767 148.5,35C 147.207,35.49 145.873,35.6567 144.5,35.5C 149.431,29.9024 154.764,24.5691 160.5,19.5C 161.797,21.9732 161.797,24.3066 160.5,26.5 Z"/></g>
<g><path style="opacity:1" fill="#f0bcd0" d="M 15.5,27.5 C 18.1057,21.3804 21.1057,15.3804 24.5,9.5C 25.8333,8.5 27.1667,7.5 28.5,6.5C 38.0704,-1.66802 43.2371,0.665316 44,13.5C 44.4995,19.4908 44.6662,25.4908 44.5,31.5C 42.4727,31.3379 40.4727,31.5045 38.5,32C 29.5778,38.3779 20.7444,44.8779 12,51.5C 12.1868,43.3905 13.3535,35.3905 15.5,27.5 Z"/></g>
<g><path style="opacity:1" fill="#fdbbd6" d="M 28.5,6.5 C 32.2198,6.56422 35.8865,7.06422 39.5,8C 33.5595,9.13621 33.0595,11.3029 38,14.5C 39.1074,14.4148 40.1074,14.0814 41,13.5C 41.4994,19.1569 41.6661,24.8236 41.5,30.5C 39.1432,30.3367 36.8098,30.5034 34.5,31C 32.0653,33.0976 29.3986,33.5976 26.5,32.5C 27.2739,31.2888 28.1072,31.2888 29,32.5C 29.9859,30.0752 29.3193,28.4085 27,27.5C 24.8878,30.4742 22.0545,31.6409 18.5,31C 19.4337,27.5093 20.4337,24.0093 21.5,20.5C 23.9585,19.081 26.6251,18.081 29.5,17.5C 30.6405,15.9222 31.1405,14.2555 31,12.5C 30.3333,13.1667 29.6667,13.8333 29,14.5C 28.5026,11.854 28.3359,9.1873 28.5,6.5 Z"/></g>
<g><path style="opacity:1" fill="#eff20e" d="M 100.5,21.5 C 100.5,22.1667 100.833,22.5 101.5,22.5C 101.5,22.8333 101.5,23.1667 101.5,23.5C 100.8,30.4674 103.3,35.8008 109,39.5C 109.483,40.448 109.649,41.448 109.5,42.5C 109.5,42.8333 109.5,43.1667 109.5,43.5C 108.907,46.5 108.074,49.5 107,52.5C 105.048,50.6627 104.048,48.3294 104,45.5C 102.89,43.9632 101.39,43.2965 99.5,43.5C 99.5,44.8333 99.5,46.1667 99.5,47.5C 98.1667,47.5 96.8333,47.5 95.5,47.5C 96.0024,39.1364 96.8357,30.803 98,22.5C 98.6708,21.7476 99.5041,21.4142 100.5,21.5 Z"/></g>
<g><path style="opacity:1" fill="#dee74b" d="M 127.5,15.5 C 128.5,15.5 129.5,15.5 130.5,15.5C 130.111,18.5533 130.777,21.22 132.5,23.5C 133.317,25.9686 133.817,28.6353 134,31.5C 135.72,37.6831 139.22,39.0165 144.5,35.5C 143.384,37.5076 141.551,38.5076 139,38.5C 136.538,37.8405 134.038,37.5072 131.5,37.5C 131.5,40.8333 131.5,44.1667 131.5,47.5C 130.5,47.5 129.5,47.5 128.5,47.5C 130.339,42.8546 129.672,38.688 126.5,35C 123.137,34.0726 120.137,34.5726 117.5,36.5C 114.569,38.0908 111.902,40.0908 109.5,42.5C 109.649,41.448 109.483,40.448 109,39.5C 103.3,35.8008 100.8,30.4674 101.5,23.5C 103.338,26.9805 105.004,30.6472 106.5,34.5C 108.074,35.6309 109.741,35.7975 111.5,35C 116.082,29.2655 120.415,23.4322 124.5,17.5C 125.5,16.8333 126.5,16.1667 127.5,15.5 Z"/></g>
<g><path style="opacity:1" fill="#f3f313" d="M 127.5,18.5 C 129.453,21.1411 130.953,24.1411 132,27.5C 132.818,30.2272 132.652,32.8938 131.5,35.5C 127.258,32.1899 122.591,31.5232 117.5,33.5C 118.875,29.7468 120.542,26.0802 122.5,22.5C 124.419,21.3875 126.086,20.0542 127.5,18.5 Z"/></g>
<g><path style="opacity:1" fill="#e4e45f" d="M 160.5,29.5 C 159.124,36.231 158.124,42.8977 157.5,49.5C 157.311,43.3745 156.644,37.3745 155.5,31.5C 157.514,31.6085 159.18,30.9418 160.5,29.5 Z"/></g>
<g><path style="opacity:0.111" fill="#a9c3c8" d="M 46.5,14.5 C 46.8397,27.6988 47.8397,40.6988 49.5,53.5C 48.3647,55.0878 47.0314,55.4212 45.5,54.5C 46.4816,41.2162 46.815,27.8828 46.5,14.5 Z"/></g>
<g><path style="opacity:0.122" fill="#afcbd3" d="M 91.5,27.5 C 91.1584,32.5484 90.4918,37.5484 89.5,42.5C 89.719,43.675 89.3857,44.675 88.5,45.5C 84.5705,44.5672 80.5705,44.2338 76.5,44.5C 80.2315,43.8045 84.0648,43.1378 88,42.5C 88.9659,37.3212 90.1325,32.3212 91.5,27.5 Z"/></g>
<g><path style="opacity:1" fill="#dedf8d" d="M 101.5,22.5 C 100.833,22.5 100.5,22.1667 100.5,21.5C 99.9022,18.2693 98.7356,17.936 97,20.5C 94.7566,31.4545 92.9233,42.4545 91.5,53.5C 90.5206,56.6248 90.1872,59.9581 90.5,63.5C 89.2521,62.6661 88.5854,61.3328 88.5,59.5C 89.2771,54.5058 89.9438,49.5058 90.5,44.5C 92.7624,33.5609 95.2624,22.5609 98,11.5C 100.076,14.8931 101.242,18.5598 101.5,22.5 Z"/></g>
<g><path style="opacity:0.094" fill="#b2c0c2" d="M 175.5,59.5 C 169.788,59.687 164.121,59.3537 158.5,58.5C 159.604,46.4359 161.271,34.4359 163.5,22.5C 164.157,18.4905 162.49,16.8238 158.5,17.5C 159.527,16.1522 160.86,15.6522 162.5,16C 164.045,17.8219 164.712,19.9886 164.5,22.5C 162.447,34.0878 161.113,45.7545 160.5,57.5C 165.731,57.4443 170.731,58.111 175.5,59.5 Z"/></g>
<g><path style="opacity:1" fill="#e8e915" d="M 100.5,21.5 C 99.5041,21.4142 98.6708,21.7476 98,22.5C 96.8357,30.803 96.0024,39.1364 95.5,47.5C 96.8333,47.5 98.1667,47.5 99.5,47.5C 99.5,46.1667 99.5,44.8333 99.5,43.5C 101.39,43.2965 102.89,43.9632 104,45.5C 104.048,48.3294 105.048,50.6627 107,52.5C 108.074,49.5 108.907,46.5 109.5,43.5C 109.336,46.1873 109.503,48.854 110,51.5C 110.383,52.056 110.883,52.3893 111.5,52.5C 111.5,52.8333 111.5,53.1667 111.5,53.5C 111.5,53.8333 111.5,54.1667 111.5,54.5C 112.694,55.7773 114.36,56.4439 116.5,56.5C 118.167,56.3333 119.833,56.1667 121.5,56C 125.223,54.1287 127.556,51.2953 128.5,47.5C 129.5,47.5 130.5,47.5 131.5,47.5C 131.5,44.1667 131.5,40.8333 131.5,37.5C 134.038,37.5072 136.538,37.8405 139,38.5C 141.551,38.5076 143.384,37.5076 144.5,35.5C 145.873,35.6567 147.207,35.49 148.5,35C 151.936,31.5767 154.936,27.91 157.5,24C 158.448,23.5172 159.448,23.3505 160.5,23.5C 160.5,24.5 160.5,25.5 160.5,26.5C 160.5,27.5 160.5,28.5 160.5,29.5C 159.18,30.9418 157.514,31.6085 155.5,31.5C 156.644,37.3745 157.311,43.3745 157.5,49.5C 156.698,50.9516 156.198,52.6183 156,54.5C 153.851,55.652 152.018,57.152 150.5,59C 144.219,60.1623 137.886,60.9956 131.5,61.5C 127.925,61.9887 124.925,63.3221 122.5,65.5C 113.161,65.6665 103.827,65.4998 94.5,65C 93.5838,64.6258 92.7504,64.1258 92,63.5C 91.5017,60.1832 91.335,56.8499 91.5,53.5C 92.9233,42.4545 94.7566,31.4545 97,20.5C 98.7356,17.936 99.9022,18.2693 100.5,21.5 Z"/></g>
<g><path style="opacity:1" fill="#c8e64a" d="M 127.5,47.5 C 127.833,47.5 128.167,47.5 128.5,47.5C 127.556,51.2953 125.223,54.1287 121.5,56C 119.833,56.1667 118.167,56.3333 116.5,56.5C 114.36,56.4439 112.694,55.7773 111.5,54.5C 114.898,54.8204 118.232,54.487 121.5,53.5C 122.779,51.8539 124.445,50.6872 126.5,50C 127.252,49.3292 127.586,48.4959 127.5,47.5 Z"/></g>
<g><path style="opacity:1" fill="#7db787" d="M 127.5,47.5 C 127.586,48.4959 127.252,49.3292 126.5,50C 124.445,50.6872 122.779,51.8539 121.5,53.5C 118.232,54.487 114.898,54.8204 111.5,54.5C 111.5,54.1667 111.5,53.8333 111.5,53.5C 114.385,53.8064 117.052,53.4731 119.5,52.5C 122.167,50.8333 124.833,49.1667 127.5,47.5 Z"/></g>
<g><path style="opacity:1" fill="#c5df8d" d="M 117.5,36.5 C 117.5,36.8333 117.5,37.1667 117.5,37.5C 111.957,40.9114 109.957,45.9114 111.5,52.5C 110.883,52.3893 110.383,52.056 110,51.5C 109.503,48.854 109.336,46.1873 109.5,43.5C 109.5,43.1667 109.5,42.8333 109.5,42.5C 111.902,40.0908 114.569,38.0908 117.5,36.5 Z"/></g>
<g><path style="opacity:1" fill="#81ba90" d="M 128.5,47.5 C 128.167,47.5 127.833,47.5 127.5,47.5C 128.368,44.3273 128.368,41.3273 127.5,38.5C 126.508,36.9735 125.008,36.3068 123,36.5C 121.122,36.6962 119.288,37.0295 117.5,37.5C 117.5,37.1667 117.5,36.8333 117.5,36.5C 120.137,34.5726 123.137,34.0726 126.5,35C 129.672,38.688 130.339,42.8546 128.5,47.5 Z"/></g>
<g><path style="opacity:1" fill="#69b3d1" d="M 127.5,38.5 C 126.5,38.5 125.5,38.5 124.5,38.5C 124.5,39.5 124.5,40.5 124.5,41.5C 121.833,40.8333 119.167,40.1667 116.5,39.5C 116.5,41.1667 116.5,42.8333 116.5,44.5C 115.5,44.5 114.5,44.5 113.5,44.5C 114.408,46.8911 114.574,49.2244 114,51.5C 115.699,52.4061 117.533,52.7394 119.5,52.5C 117.052,53.4731 114.385,53.8064 111.5,53.5C 111.5,53.1667 111.5,52.8333 111.5,52.5C 109.957,45.9114 111.957,40.9114 117.5,37.5C 119.288,37.0295 121.122,36.6962 123,36.5C 125.008,36.3068 126.508,36.9735 127.5,38.5 Z"/></g>
<g><path style="opacity:1" fill="#5aafe8" d="M 127.5,38.5 C 128.368,41.3273 128.368,44.3273 127.5,47.5C 124.833,49.1667 122.167,50.8333 119.5,52.5C 117.533,52.7394 115.699,52.4061 114,51.5C 114.574,49.2244 114.408,46.8911 113.5,44.5C 114.5,44.5 115.5,44.5 116.5,44.5C 116.5,42.8333 116.5,41.1667 116.5,39.5C 119.167,40.1667 121.833,40.8333 124.5,41.5C 124.5,40.5 124.5,39.5 124.5,38.5C 125.5,38.5 126.5,38.5 127.5,38.5 Z"/></g>
<g><path style="opacity:0.012" fill="#9db1bd" d="M 113.5,29.5 C 112.287,33.6295 110.287,34.2961 107.5,31.5C 108.15,31.8039 108.817,32.1373 109.5,32.5C 110.852,31.4756 112.185,30.4756 113.5,29.5 Z"/></g>
<g><path style="opacity:0.137" fill="#b0c0bc" d="M 135.5,26.5 C 136.322,28.3885 137.155,30.3885 138,32.5C 138.671,33.2524 139.504,33.5858 140.5,33.5C 139.458,34.7911 138.292,34.7911 137,33.5C 135.798,31.3225 135.298,28.9892 135.5,26.5 Z"/></g>
<g><path style="opacity:0.161" fill="#84999d" d="M 115.5,26.5 C 115.573,28.0269 114.906,29.0269 113.5,29.5C 113.427,27.9731 114.094,26.9731 115.5,26.5 Z"/></g>
<g><path style="opacity:0.169" fill="#8595a6" d="M 117.5,23.5 C 117.573,25.0269 116.906,26.0269 115.5,26.5C 115.427,24.9731 116.094,23.9731 117.5,23.5 Z"/></g>
<g><path style="opacity:1" fill="#1e1116" d="M 85.5,51.5 C 85.5,52.1667 85.5,52.8333 85.5,53.5C 76.5707,58.7611 69.2374,65.7611 63.5,74.5C 63.5,74.8333 63.5,75.1667 63.5,75.5C 58.2392,81.6774 54.2392,88.6774 51.5,96.5C 50.3143,95.2946 50.3143,93.9613 51.5,92.5C 52.1999,89.9373 53.1999,87.4373 54.5,85C 53.381,83.124 51.7144,82.2907 49.5,82.5C 49.5,85.5 49.5,88.5 49.5,91.5C 48.8333,90.8333 48.1667,90.1667 47.5,89.5C 47.5,89.1667 47.5,88.8333 47.5,88.5C 47.3711,84.5234 47.3711,80.8567 47.5,77.5C 50.1297,79.763 53.1297,80.9297 56.5,81C 60.5594,74.3848 65.2261,68.2182 70.5,62.5C 68.5787,61.359 66.5787,61.1923 64.5,62C 61.4383,63.2049 58.4383,64.3716 55.5,65.5C 55.33,64.1779 55.6634,63.0113 56.5,62C 62.3048,60.0138 68.3048,59.0138 74.5,59C 77.7735,55.888 81.4402,53.388 85.5,51.5 Z"/></g>
<g><path style="opacity:0.082" fill="#a6afb6" d="M 175.5,59.5 C 180.044,59.4591 184.044,60.7925 187.5,63.5C 183.315,62.4603 179.315,61.127 175.5,59.5 Z"/></g>
<g><path style="opacity:1" fill="#c6c53f" d="M 157.5,49.5 C 157.793,52.7543 157.126,55.7543 155.5,58.5C 154.571,59.3149 153.571,60.1482 152.5,61C 147.833,61.3333 143.167,61.6667 138.5,62C 133.156,63.2779 127.822,64.4445 122.5,65.5C 124.925,63.3221 127.925,61.9887 131.5,61.5C 137.886,60.9956 144.219,60.1623 150.5,59C 152.018,57.152 153.851,55.652 156,54.5C 156.198,52.6183 156.698,50.9516 157.5,49.5 Z"/></g>
<g><path style="opacity:1" fill="#ecbcd0" d="M 85.5,53.5 C 86.4972,53.4701 87.1639,53.9701 87.5,55C 84.6872,64.0383 88.0206,68.705 97.5,69C 111.922,70.7652 125.922,69.0986 139.5,64C 144.584,63.8272 149.584,63.1606 154.5,62C 166.114,60.0702 177.114,61.7368 187.5,67C 191.548,70.7162 195.882,74.0496 200.5,77C 206.089,77.6015 211.589,77.1015 217,75.5C 217.5,75.8333 218,76.1667 218.5,76.5C 217.902,77.7946 217.402,79.1279 217,80.5C 212.917,86.4011 209.083,92.4011 205.5,98.5C 205.167,98.5 204.833,98.5 204.5,98.5C 204.34,96.8008 204.506,95.1341 205,93.5C 213.2,85.8925 211.7,81.5592 200.5,80.5C 198.701,80.577 197.034,81.077 195.5,82C 198.167,82.6667 198.167,83.3333 195.5,84C 197.085,84.0848 198.418,84.2514 199.5,84.5C 198.626,88.208 196.46,90.8746 193,92.5C 191.711,90.3554 190.878,88.0221 190.5,85.5C 193.594,88.4911 194.594,87.9911 193.5,84C 182.509,75.5426 170.175,73.0426 156.5,76.5C 156.33,75.1779 156.663,74.0113 157.5,73C 159.764,72.7638 161.931,72.2638 164,71.5C 170.002,72.5024 176.169,72.8357 182.5,72.5C 184.003,71.4099 184.336,70.2433 183.5,69C 180.986,67.7475 178.32,67.2475 175.5,67.5C 175.5,66.5 175.5,65.5 175.5,64.5C 169.907,64.8066 164.407,64.4732 159,63.5C 155.925,65.7707 152.425,66.9373 148.5,67C 133.675,69.6531 118.675,71.1531 103.5,71.5C 98.1008,71.5535 92.7674,71.0535 87.5,70C 84.9634,67.128 82.1301,64.628 79,62.5C 76.5,63.6667 74.6667,65.5 73.5,68C 70.1844,68.4546 68.0177,70.2879 67,73.5C 66.6667,73.1667 66.3333,72.8333 66,72.5C 65.5831,73.756 64.7498,74.4226 63.5,74.5C 69.2374,65.7611 76.5707,58.7611 85.5,53.5 Z"/></g>
<g><path style="opacity:0.027" fill="#a9b7b5" d="M 187.5,63.5 C 189.754,64.1237 191.421,65.457 192.5,67.5C 190.205,66.8645 188.539,65.5311 187.5,63.5 Z"/></g>
<g><path style="opacity:1" fill="#d0d455" d="M 91.5,53.5 C 91.335,56.8499 91.5017,60.1832 92,63.5C 92.7504,64.1258 93.5838,64.6258 94.5,65C 103.827,65.4998 113.161,65.6665 122.5,65.5C 113.009,66.658 103.342,66.8246 93.5,66C 91.8807,65.7645 90.8807,64.9311 90.5,63.5C 90.1872,59.9581 90.5206,56.6248 91.5,53.5 Z"/></g>
<g><path style="opacity:0.082" fill="#c8cfd2" d="M 224.5,67.5 C 224.5,67.8333 224.5,68.1667 224.5,68.5C 222.704,69.7927 221.037,71.2927 219.5,73C 217.527,73.4955 215.527,73.6621 213.5,73.5C 214.952,72.6981 216.618,72.1981 218.5,72C 220.114,69.8733 222.114,68.3733 224.5,67.5 Z"/></g>
<g><path style="opacity:1" fill="#c40f12" d="M 39.5,72.5 C 45.3797,76.2594 48.0464,81.5927 47.5,88.5C 47.5,88.8333 47.5,89.1667 47.5,89.5C 47.9093,100.896 47.4093,112.23 46,123.5C 45.0513,125.093 43.8846,126.426 42.5,127.5C 42.1437,124.436 42.9771,121.769 45,119.5C 45.5,112 46,104.5 46.5,97C 46.4971,94.3097 46.1638,91.8097 45.5,89.5C 45.8324,83.9754 43.8324,79.6421 39.5,76.5C 38.1255,77.7113 36.6255,78.7113 35,79.5C 34.1268,79.2645 33.2935,78.9312 32.5,78.5C 30.8273,80.0863 28.8273,80.7529 26.5,80.5C 26.3691,79.6236 26.7025,78.9569 27.5,78.5C 31.5641,76.4679 35.5641,74.4679 39.5,72.5 Z"/></g>
<g><path style="opacity:1" fill="#ef0102" d="M 45.5,89.5 C 44.1829,99.3421 43.3496,109.342 43,119.5C 40.1113,121.708 38.7779,124.708 39,128.5C 38.2588,129.641 37.4255,129.641 36.5,128.5C 35.8653,131.961 34.8653,135.295 33.5,138.5C 32.675,139.386 31.675,139.719 30.5,139.5C 30.6567,140.873 30.49,142.207 30,143.5C 28.6439,142.62 27.1439,142.286 25.5,142.5C 25.8076,140.076 25.4742,137.743 24.5,135.5C 23.8165,135.863 23.1499,136.196 22.5,136.5C 21.6445,128.073 19.8112,119.74 17,111.5C 15.8986,103.52 15.5652,95.5202 16,87.5C 20.4748,86.6368 23.9748,84.3035 26.5,80.5C 28.8273,80.7529 30.8273,80.0863 32.5,78.5C 33.2935,78.9312 34.1268,79.2645 35,79.5C 36.6255,78.7113 38.1255,77.7113 39.5,76.5C 43.8324,79.6421 45.8324,83.9754 45.5,89.5 Z"/></g>
<g><path style="opacity:1" fill="#fcb9d2" d="M 156.5,76.5 C 156.5,77.5 156.5,78.5 156.5,79.5C 163.446,78.1193 170.446,77.6193 177.5,78C 182.191,80.0079 186.524,82.5079 190.5,85.5C 190.878,88.0221 191.711,90.3554 193,92.5C 196.46,90.8746 198.626,88.208 199.5,84.5C 198.418,84.2514 197.085,84.0848 195.5,84C 198.167,83.3333 198.167,82.6667 195.5,82C 197.034,81.077 198.701,80.577 200.5,80.5C 211.7,81.5592 213.2,85.8925 205,93.5C 204.506,95.1341 204.34,96.8008 204.5,98.5C 201.167,102.167 197.833,105.833 194.5,109.5C 192.938,109.733 191.605,110.4 190.5,111.5C 187.055,111.194 183.389,111.194 179.5,111.5C 179.5,112.833 179.5,114.167 179.5,115.5C 173.068,114.347 167.568,116.014 163,120.5C 161.924,117.64 161.091,114.64 160.5,111.5C 159.341,115.122 159.175,118.789 160,122.5C 161.813,125.429 162.98,128.596 163.5,132C 162.099,132.41 160.766,132.91 159.5,133.5C 160.413,131.914 160.413,130.414 159.5,129C 160.308,128.692 160.975,128.192 161.5,127.5C 161.154,126.304 160.654,126.304 160,127.5C 158.921,124.937 158.421,122.271 158.5,119.5C 148.5,119.5 138.5,119.5 128.5,119.5C 128.789,122.649 128.289,125.649 127,128.5C 124.271,126.212 121.438,126.045 118.5,128C 120.275,129.439 122.275,130.439 124.5,131C 125.833,132 125.833,133 124.5,134C 119.851,137.248 114.851,138.415 109.5,137.5C 112.714,136.718 116.048,135.885 119.5,135C 120.428,134.612 121.095,133.945 121.5,133C 120.465,131.726 119.298,130.56 118,129.5C 116.274,130.576 114.441,130.743 112.5,130C 108.415,128.544 104.582,126.71 101,124.5C 97.8897,125.673 97.723,125.173 100.5,123C 99.6456,121.119 99.9789,119.286 101.5,117.5C 100.976,115.547 99.9756,113.88 98.5,112.5C 90.3781,111.631 82.7114,109.631 75.5,106.5C 73.3132,107.322 71.6466,108.822 70.5,111C 69.552,111.483 68.552,111.649 67.5,111.5C 67.5688,108.916 68.7355,106.916 71,105.5C 72.0256,99.6914 72.8589,93.8581 73.5,88C 71.3532,84.8482 68.8532,84.6816 66,87.5C 65.2707,92.021 63.9374,96.3543 62,100.5C 61.5026,97.854 61.3359,95.1873 61.5,92.5C 60.1667,92.5 58.8333,92.5 57.5,92.5C 58.9767,98.7673 60.1434,105.101 61,111.5C 63.0693,112.264 65.236,112.764 67.5,113C 66.2528,114.494 66.2528,115.994 67.5,117.5C 69.0461,118.684 70.7127,119.684 72.5,120.5C 68.82,121.764 65.1534,121.764 61.5,120.5C 59.4661,121.574 59.1328,122.907 60.5,124.5C 60.5,124.833 60.5,125.167 60.5,125.5C 59.3509,125.791 58.6842,126.624 58.5,128C 58.8613,130.449 59.528,132.782 60.5,135C 59.8095,136.067 59.3095,137.234 59,138.5C 58.6411,135.456 57.9745,135.122 57,137.5C 56.5045,139.473 56.3379,141.473 56.5,143.5C 51.9954,144.178 48.8287,142.511 47,138.5C 46.7482,135.333 46.5815,132.333 46.5,129.5C 47.3202,127.889 48.6536,127.222 50.5,127.5C 52.3878,122.759 53.5545,117.759 54,112.5C 54.7504,111.874 55.5838,111.374 56.5,111C 56.4825,105.301 55.8158,99.4677 54.5,93.5C 55.9488,91.3894 56.9488,89.0561 57.5,86.5C 58.6283,85.7379 59.7949,85.0712 61,84.5C 61.4008,81.3006 62.2341,78.3006 63.5,75.5C 63.5,75.1667 63.5,74.8333 63.5,74.5C 64.7498,74.4226 65.5831,73.756 66,72.5C 66.3333,72.8333 66.6667,73.1667 67,73.5C 68.0177,70.2879 70.1844,68.4546 73.5,68C 74.6667,65.5 76.5,63.6667 79,62.5C 82.1301,64.628 84.9634,67.128 87.5,70C 92.7674,71.0535 98.1008,71.5535 103.5,71.5C 118.675,71.1531 133.675,69.6531 148.5,67C 152.425,66.9373 155.925,65.7707 159,63.5C 164.407,64.4732 169.907,64.8066 175.5,64.5C 175.5,65.5 175.5,66.5 175.5,67.5C 178.32,67.2475 180.986,67.7475 183.5,69C 184.336,70.2433 184.003,71.4099 182.5,72.5C 176.169,72.8357 170.002,72.5024 164,71.5C 161.931,72.2638 159.764,72.7638 157.5,73C 156.663,74.0113 156.33,75.1779 156.5,76.5 Z"/></g>
<g><path style="opacity:0.937" fill="#afcfcf" d="M 51.5,92.5 C 50.5084,92.6716 49.8417,92.3382 49.5,91.5C 49.5,88.5 49.5,85.5 49.5,82.5C 51.7144,82.2907 53.381,83.124 54.5,85C 53.1999,87.4373 52.1999,89.9373 51.5,92.5 Z"/></g>
<g><path style="opacity:1" fill="#1f1a1c" d="M 34.5,-0.5 C 36.8333,-0.5 39.1667,-0.5 41.5,-0.5C 41.427,1.02694 42.0937,2.02694 43.5,2.5C 44.3382,2.84171 44.6716,3.50838 44.5,4.5C 44.2938,7.49508 44.9605,10.1617 46.5,12.5C 46.5,13.1667 46.5,13.8333 46.5,14.5C 46.815,27.8828 46.4816,41.2162 45.5,54.5C 47.0314,55.4212 48.3647,55.0878 49.5,53.5C 52.491,53.8337 54.8243,52.8337 56.5,50.5C 56.8417,49.6618 57.5084,49.3284 58.5,49.5C 64.4979,48.5883 70.1646,46.9216 75.5,44.5C 75.8333,44.5 76.1667,44.5 76.5,44.5C 80.5705,44.2338 84.5705,44.5672 88.5,45.5C 89.3857,44.675 89.719,43.675 89.5,42.5C 90.3382,42.8417 90.6716,43.5084 90.5,44.5C 89.9438,49.5058 89.2771,54.5058 88.5,59.5C 88.5854,61.3328 89.2521,62.6661 90.5,63.5C 90.8807,64.9311 91.8807,65.7645 93.5,66C 103.342,66.8246 113.009,66.658 122.5,65.5C 127.822,64.4445 133.156,63.2779 138.5,62C 143.167,61.6667 147.833,61.3333 152.5,61C 153.571,60.1482 154.571,59.3149 155.5,58.5C 156.5,58.5 157.5,58.5 158.5,58.5C 164.121,59.3537 169.788,59.687 175.5,59.5C 179.315,61.127 183.315,62.4603 187.5,63.5C 188.539,65.5311 190.205,66.8645 192.5,67.5C 195.634,69.9052 198.968,72.0718 202.5,74C 206.17,74.2792 209.837,74.1125 213.5,73.5C 215.527,73.6621 217.527,73.4955 219.5,73C 221.037,71.2927 222.704,69.7927 224.5,68.5C 224.5,69.5 224.5,70.5 224.5,71.5C 223.206,72.2899 222.039,73.2899 221,74.5C 220.75,77.7536 219.75,80.7536 218,83.5C 214.39,89.0769 210.557,94.4102 206.5,99.5C 205.833,99.5 205.5,99.1667 205.5,98.5C 209.083,92.4011 212.917,86.4011 217,80.5C 217.402,79.1279 217.902,77.7946 218.5,76.5C 218,76.1667 217.5,75.8333 217,75.5C 211.589,77.1015 206.089,77.6015 200.5,77C 195.882,74.0496 191.548,70.7162 187.5,67C 177.114,61.7368 166.114,60.0702 154.5,62C 149.584,63.1606 144.584,63.8272 139.5,64C 125.922,69.0986 111.922,70.7652 97.5,69C 88.0206,68.705 84.6872,64.0383 87.5,55C 87.1639,53.9701 86.4972,53.4701 85.5,53.5C 85.5,52.8333 85.5,52.1667 85.5,51.5C 87.9118,51.3059 88.9118,49.9726 88.5,47.5C 83.4889,47.3341 78.4889,47.5007 73.5,48C 63.7775,50.1923 54.4442,53.5256 45.5,58C 42.5184,58.498 39.5184,58.6646 36.5,58.5C 37.2134,61.5939 38.2134,64.5939 39.5,67.5C 39.5,68.8333 38.8333,69.5 37.5,69.5C 35.9251,65.6206 35.0917,61.6206 35,57.5C 37.7327,55.8953 40.7327,54.8953 44,54.5C 44.6667,48.1667 44.6667,41.8333 44,35.5C 43.2747,33.842 42.108,33.342 40.5,34C 29.8885,40.8899 19.7218,48.3899 10,56.5C 3.92098,65.2193 1.92098,74.886 4,85.5C 5.82784,86.7525 7.66117,86.7525 9.5,85.5C 9.55688,86.609 9.89022,87.609 10.5,88.5C 9.5,88.5 8.5,88.5 7.5,88.5C 4.19219,89.0262 2.02553,87.6928 1,84.5C -0.369386,73.9411 1.96395,64.2745 8,55.5C 8.78222,47.2301 10.2822,39.2301 12.5,31.5C 13.5313,29.5366 14.5313,28.2033 15.5,27.5C 13.3535,35.3905 12.1868,43.3905 12,51.5C 20.7444,44.8779 29.5778,38.3779 38.5,32C 40.4727,31.5045 42.4727,31.3379 44.5,31.5C 44.6662,25.4908 44.4995,19.4908 44,13.5C 43.2371,0.665316 38.0704,-1.66802 28.5,6.5C 27.1667,7.5 25.8333,8.5 24.5,9.5C 24.5,8.5 24.5,7.5 24.5,6.5C 27.0892,5.58062 29.0892,3.91395 30.5,1.5C 32.153,1.3404 33.4863,0.673734 34.5,-0.5 Z"/></g>
<g><path style="opacity:1" fill="#820f13" d="M 36.5,71.5 C 37.791,71.2627 38.791,71.596 39.5,72.5C 35.5641,74.4679 31.5641,76.4679 27.5,78.5C 26.7025,78.9569 26.3691,79.6236 26.5,80.5C 23.15,82.7336 19.4834,84.4003 15.5,85.5C 22.1733,80.5205 29.1733,75.8539 36.5,71.5 Z"/></g>
<g><path style="opacity:1" fill="#271218" d="M 190.5,85.5 C 186.524,82.5079 182.191,80.0079 177.5,78C 170.446,77.6193 163.446,78.1193 156.5,79.5C 156.5,78.5 156.5,77.5 156.5,76.5C 170.175,73.0426 182.509,75.5426 193.5,84C 194.594,87.9911 193.594,88.4911 190.5,85.5 Z"/></g>
<g><path style="opacity:1" fill="#4f050a" d="M 36.5,71.5 C 37.6009,70.4017 38.9343,70.235 40.5,71C 41.3734,72.045 42.3734,72.8783 43.5,73.5C 45.1667,74.5 46.5,75.8333 47.5,77.5C 47.3711,80.8567 47.3711,84.5234 47.5,88.5C 48.0464,81.5927 45.3797,76.2594 39.5,72.5C 38.791,71.596 37.791,71.2627 36.5,71.5 Z"/></g>
<g><path style="opacity:1" fill="#efb6cd" d="M 85.5,51.5 C 81.4402,53.388 77.7735,55.888 74.5,59C 68.3048,59.0138 62.3048,60.0138 56.5,62C 55.6634,63.0113 55.33,64.1779 55.5,65.5C 58.4383,64.3716 61.4383,63.2049 64.5,62C 66.5787,61.1923 68.5787,61.359 70.5,62.5C 65.2261,68.2182 60.5594,74.3848 56.5,81C 53.1297,80.9297 50.1297,79.763 47.5,77.5C 46.5,75.8333 45.1667,74.5 43.5,73.5C 42.6597,71.1475 41.3264,69.1475 39.5,67.5C 38.2134,64.5939 37.2134,61.5939 36.5,58.5C 39.5184,58.6646 42.5184,58.498 45.5,58C 54.4442,53.5256 63.7775,50.1923 73.5,48C 78.4889,47.5007 83.4889,47.3341 88.5,47.5C 88.9118,49.9726 87.9118,51.3059 85.5,51.5 Z"/></g>
<g><path style="opacity:0.467" fill="#5d727e" d="M 56.5,50.5 C 54.8243,52.8337 52.491,53.8337 49.5,53.5C 51.5093,51.9348 53.8427,50.9348 56.5,50.5 Z"/></g>
<g><path style="opacity:0.329" fill="#778f97" d="M 75.5,44.5 C 70.1646,46.9216 64.4979,48.5883 58.5,49.5C 63.7901,46.8508 69.4567,45.1841 75.5,44.5 Z"/></g>
<g><path style="opacity:1" fill="#d6d6d6" d="M 37.5,69.5 C 28.194,74.8215 18.8607,80.1548 9.5,85.5C 7.66117,86.7525 5.82784,86.7525 4,85.5C 1.92098,74.886 3.92098,65.2193 10,56.5C 19.7218,48.3899 29.8885,40.8899 40.5,34C 42.108,33.342 43.2747,33.842 44,35.5C 44.6667,41.8333 44.6667,48.1667 44,54.5C 40.7327,54.8953 37.7327,55.8953 35,57.5C 35.0917,61.6206 35.9251,65.6206 37.5,69.5 Z"/></g>
<g><path style="opacity:1" fill="#d7d7d7" d="M 224.5,71.5 C 224.5,72.1667 224.5,72.8333 224.5,73.5C 221.833,75.1667 221.833,76.8333 224.5,78.5C 224.5,103.167 224.5,127.833 224.5,152.5C 222.456,153.943 220.29,155.276 218,156.5C 216.523,155.556 215.523,154.223 215,152.5C 209.635,135.251 206.802,117.584 206.5,99.5C 210.557,94.4102 214.39,89.0769 218,83.5C 219.75,80.7536 220.75,77.7536 221,74.5C 222.039,73.2899 223.206,72.2899 224.5,71.5 Z"/></g>
<g><path style="opacity:0.008" fill="#9eabb5" d="M 7.5,88.5 C 8.5,88.5 9.5,88.5 10.5,88.5C 10.5,89.1667 10.5,89.8333 10.5,90.5C 9.29049,90.0679 8.29049,89.4013 7.5,88.5 Z"/></g>
<g><path style="opacity:0.984" fill="#841019" d="M 14.5,86.5 C 13.925,88.0755 13.5916,89.7422 13.5,91.5C 14.7138,97.7808 15.3804,104.114 15.5,110.5C 13.9816,104.887 12.9816,99.0534 12.5,93C 12.5332,90.3897 13.1999,88.223 14.5,86.5 Z"/></g>
<g><path style="opacity:1" fill="#f2bccf" d="M 111.5,94.5 C 113.857,94.3367 116.19,94.5034 118.5,95C 119.191,96.0674 119.691,97.2341 120,98.5C 121.251,95.1837 122.918,94.8504 125,97.5C 125.921,101.711 125.421,105.711 123.5,109.5C 122.5,107.5 121.5,105.5 120.5,103.5C 120.167,103.833 119.833,104.167 119.5,104.5C 118.893,108.489 118.227,112.489 117.5,116.5C 114.882,121.162 111.882,121.495 108.5,117.5C 107.451,114.253 106.784,110.92 106.5,107.5C 108.355,103.223 110.022,98.89 111.5,94.5 Z"/></g>
<g><path style="opacity:1" fill="#170c10" d="M 114.5,95.5 C 115.5,95.5 116.5,95.5 117.5,95.5C 117.237,103.275 116.237,110.941 114.5,118.5C 112.876,118.64 111.71,117.973 111,116.5C 109.609,109.012 110.776,102.012 114.5,95.5 Z"/></g>
<g><path style="opacity:0.035" fill="#85a7ab" d="M 11.5,100.5 C 13.018,107.293 14.018,114.293 14.5,121.5C 12.5473,114.766 11.5473,107.766 11.5,100.5 Z"/></g>
<g><path style="opacity:1" fill="#281515" d="M 204.5,98.5 C 204.833,98.5 205.167,98.5 205.5,98.5C 205.5,99.1667 205.833,99.5 206.5,99.5C 206.802,117.584 209.635,135.251 215,152.5C 215.523,154.223 216.523,155.556 218,156.5C 220.29,155.276 222.456,153.943 224.5,152.5C 224.5,153.833 224.5,155.167 224.5,156.5C 222.117,159.062 219.451,159.729 216.5,158.5C 215.71,157.599 214.71,156.932 213.5,156.5C 213.346,151.711 212.013,147.378 209.5,143.5C 208.833,138.167 208.167,132.833 207.5,127.5C 206.197,120.548 205.03,113.548 204,106.5C 203.586,106.043 203.086,105.709 202.5,105.5C 194.287,114.711 185.454,123.378 176,131.5C 175.688,134.309 174.188,135.976 171.5,136.5C 172.128,133.91 173.295,131.577 175,129.5C 181.046,125.067 186.546,120.067 191.5,114.5C 192.752,112.999 193.752,111.332 194.5,109.5C 197.833,105.833 201.167,102.167 204.5,98.5 Z"/></g>
<g><path style="opacity:1" fill="#191218" d="M 194.5,109.5 C 193.752,111.332 192.752,112.999 191.5,114.5C 187.97,116.511 184.303,118.345 180.5,120C 176.579,120.203 172.745,120.703 169,121.5C 167.419,127.819 165.919,134.153 164.5,140.5C 164.667,141.167 164.833,141.833 165,142.5C 167.037,140.294 169.203,138.294 171.5,136.5C 170.246,139.093 168.58,141.427 166.5,143.5C 164.938,143.733 163.605,144.4 162.5,145.5C 161.833,145.5 161.167,145.5 160.5,145.5C 163.724,137.356 166.058,129.023 167.5,120.5C 168.5,119.667 169.5,118.833 170.5,118C 178.277,118.877 184.944,116.71 190.5,111.5C 191.605,110.4 192.938,109.733 194.5,109.5 Z"/></g>
<g><path style="opacity:1" fill="#b8dbe0" d="M 191.5,114.5 C 186.546,120.067 181.046,125.067 175,129.5C 173.295,131.577 172.128,133.91 171.5,136.5C 169.203,138.294 167.037,140.294 165,142.5C 164.833,141.833 164.667,141.167 164.5,140.5C 165.919,134.153 167.419,127.819 169,121.5C 172.745,120.703 176.579,120.203 180.5,120C 184.303,118.345 187.97,116.511 191.5,114.5 Z"/></g>
<g><path style="opacity:0.659" fill="#2f1e1f" d="M 39.5,67.5 C 41.3264,69.1475 42.6597,71.1475 43.5,73.5C 42.3734,72.8783 41.3734,72.045 40.5,71C 38.9343,70.235 37.6009,70.4017 36.5,71.5C 29.1733,75.8539 22.1733,80.5205 15.5,85.5C 14.8333,85.5 14.5,85.8333 14.5,86.5C 13.1999,88.223 12.5332,90.3897 12.5,93C 12.9816,99.0534 13.9816,104.887 15.5,110.5C 16.4993,117.831 17.4993,125.164 18.5,132.5C 19.1332,146.833 21.6332,160.833 26,174.5C 27.0486,177.187 28.5486,179.52 30.5,181.5C 31.7436,184.727 32.9103,188.061 34,191.5C 34.3741,197.58 35.2074,203.58 36.5,209.5C 35.1429,208.41 34.1429,207.076 33.5,205.5C 33.5,205.167 33.5,204.833 33.5,204.5C 33.7204,199.9 33.0538,195.567 31.5,191.5C 21.8429,174.214 16.8429,155.547 16.5,135.5C 16.6382,130.586 15.9715,125.919 14.5,121.5C 14.018,114.293 13.018,107.293 11.5,100.5C 10.5863,97.272 10.2529,93.9387 10.5,90.5C 10.5,89.8333 10.5,89.1667 10.5,88.5C 9.89022,87.609 9.55688,86.609 9.5,85.5C 18.8607,80.1548 28.194,74.8215 37.5,69.5C 38.8333,69.5 39.5,68.8333 39.5,67.5 Z"/></g>
<g><path style="opacity:1" fill="#e6b5c7" d="M 109.5,137.5 C 109.286,139.144 109.62,140.644 110.5,142C 109.256,142.456 108.423,141.956 108,140.5C 107.221,142.807 107.721,144.807 109.5,146.5C 107.955,147.452 106.288,147.785 104.5,147.5C 105.167,144.5 105.833,141.5 106.5,138.5C 107.165,136.631 107.831,134.631 108.5,132.5C 111.447,133.423 114.447,134.089 117.5,134.5C 117.5,133.5 117.5,132.5 117.5,131.5C 107.465,129.526 97.4647,127.36 87.5,125C 80.1742,124.5 72.8409,124.334 65.5,124.5C 63.8333,124.5 62.1667,124.5 60.5,124.5C 59.1328,122.907 59.4661,121.574 61.5,120.5C 65.1534,121.764 68.82,121.764 72.5,120.5C 70.7127,119.684 69.0461,118.684 67.5,117.5C 66.2528,115.994 66.2528,114.494 67.5,113C 65.236,112.764 63.0693,112.264 61,111.5C 60.1434,105.101 58.9767,98.7673 57.5,92.5C 58.8333,92.5 60.1667,92.5 61.5,92.5C 61.3359,95.1873 61.5026,97.854 62,100.5C 63.9374,96.3543 65.2707,92.021 66,87.5C 68.8532,84.6816 71.3532,84.8482 73.5,88C 72.8589,93.8581 72.0256,99.6914 71,105.5C 68.7355,106.916 67.5688,108.916 67.5,111.5C 68.552,111.649 69.552,111.483 70.5,111C 71.6466,108.822 73.3132,107.322 75.5,106.5C 82.7114,109.631 90.3781,111.631 98.5,112.5C 99.9756,113.88 100.976,115.547 101.5,117.5C 99.9789,119.286 99.6456,121.119 100.5,123C 97.723,125.173 97.8897,125.673 101,124.5C 104.582,126.71 108.415,128.544 112.5,130C 114.441,130.743 116.274,130.576 118,129.5C 119.298,130.56 120.465,131.726 121.5,133C 121.095,133.945 120.428,134.612 119.5,135C 116.048,135.885 112.714,136.718 109.5,137.5 Z"/></g>
<g><path style="opacity:1" fill="#6d4e59" d="M 88.5,114.5 C 89.4916,114.328 90.1583,114.662 90.5,115.5C 90.5761,118.767 89.2427,120.101 86.5,119.5C 87.0253,118.808 87.6919,118.308 88.5,118C 86.0688,116.908 86.0688,115.741 88.5,114.5 Z"/></g>
<g><path style="opacity:1" fill="#1f0d13" d="M 90.5,115.5 C 90.1583,114.662 89.4916,114.328 88.5,114.5C 85.8333,114.167 83.1667,113.833 80.5,113.5C 78.5,112.167 76.5,112.167 74.5,113.5C 75.6664,115.166 75.6664,116.833 74.5,118.5C 70.6046,111.552 72.6046,109.052 80.5,111C 86.0409,111.792 91.3742,113.292 96.5,115.5C 97.982,118.257 97.482,120.59 95,122.5C 96.5697,118.319 95.0697,115.986 90.5,115.5 Z"/></g>
<g><path style="opacity:1" fill="#654a54" d="M 74.5,113.5 C 76.5,112.167 78.5,112.167 80.5,113.5C 80.2289,114.552 80.0622,115.885 80,117.5C 76.1323,118.263 75.6323,117.096 78.5,114C 77.2068,113.51 75.8734,113.343 74.5,113.5 Z"/></g>
<g><path style="opacity:1" fill="#180e12" d="M 68.5,88.5 C 70.5838,95.1385 69.7505,101.805 66,108.5C 64.8904,110.037 63.3904,110.703 61.5,110.5C 62.6886,102.793 65.0219,95.4594 68.5,88.5 Z"/></g>
<g><path style="opacity:1" fill="#e40102" d="M 198.5,112.5 C 199.5,112.5 200.5,112.5 201.5,112.5C 201.433,113.959 201.766,115.292 202.5,116.5C 202.805,121.762 202.471,126.928 201.5,132C 203.27,138.982 205.603,145.649 208.5,152C 208.167,152.333 207.833,152.667 207.5,153C 210.051,154.516 209.718,155.349 206.5,155.5C 206.5,157.167 206.5,158.833 206.5,160.5C 203.437,159.92 200.437,159.586 197.5,159.5C 195.865,159.878 194.365,160.544 193,161.5C 191.739,161.241 190.739,160.574 190,159.5C 185.587,163.483 181.254,163.483 177,159.5C 175.989,160.337 174.822,160.67 173.5,160.5C 173.715,158.226 174.382,156.059 175.5,154C 175.167,153.167 174.833,152.333 174.5,151.5C 172.331,154.307 170.665,157.307 169.5,160.5C 168.167,160.5 166.833,160.5 165.5,160.5C 167.487,156.174 169.487,151.84 171.5,147.5C 170.167,147.5 168.833,147.5 167.5,147.5C 167.5,146.5 167.5,145.5 167.5,144.5C 170.206,144.575 172.873,144.908 175.5,145.5C 175.579,144.07 175.246,142.736 174.5,141.5C 176.086,139.827 176.753,137.827 176.5,135.5C 176.5,134.5 176.5,133.5 176.5,132.5C 179.5,132.833 180.833,131.5 180.5,128.5C 181.552,128.649 182.552,128.483 183.5,128C 184.891,125.61 186.891,123.943 189.5,123C 192.365,119.308 195.365,115.808 198.5,112.5 Z"/></g>
<g><path style="opacity:1" fill="#b20c0e" d="M 207.5,127.5 C 208.167,132.833 208.833,138.167 209.5,143.5C 209.85,146.722 210.517,149.888 211.5,153C 211.472,154.07 211.139,154.903 210.5,155.5C 207.507,142.366 204.84,129.366 202.5,116.5C 201.766,115.292 201.433,113.959 201.5,112.5C 200.5,112.5 199.5,112.5 198.5,112.5C 199.401,110.273 201.067,109.273 203.5,109.5C 203.826,115.844 205.159,121.844 207.5,127.5 Z"/></g>
<g><path style="opacity:1" fill="#180f10" d="M 65.5,124.5 C 72.8409,124.334 80.1742,124.5 87.5,125C 97.4647,127.36 107.465,129.526 117.5,131.5C 117.5,132.5 117.5,133.5 117.5,134.5C 114.447,134.089 111.447,133.423 108.5,132.5C 107.831,134.631 107.165,136.631 106.5,138.5C 102.603,138.953 98.6027,138.62 94.5,137.5C 93.8333,137.5 93.1667,137.5 92.5,137.5C 89.7827,136.437 86.9494,135.437 84,134.5C 79.2686,134.657 74.4353,134.824 69.5,135C 68.5,135.5 67.5,136 66.5,136.5C 65.8415,143.994 65.5081,151.328 65.5,158.5C 64.5584,150.868 63.8917,143.201 63.5,135.5C 63.927,132.212 63.2603,129.212 61.5,126.5C 62.9492,125.828 64.2825,125.161 65.5,124.5 Z"/></g>
<g><path style="opacity:1" fill="#efedef" d="M 73.5,126.5 C 78.9071,125.18 81.5737,127.18 81.5,132.5C 78.8333,132.5 76.1667,132.5 73.5,132.5C 73.5,130.5 73.5,128.5 73.5,126.5 Z"/></g>
<g><path style="opacity:1" fill="#961317" d="M 207.5,127.5 C 205.159,121.844 203.826,115.844 203.5,109.5C 201.067,109.273 199.401,110.273 198.5,112.5C 195.365,115.808 192.365,119.308 189.5,123C 186.891,123.943 184.891,125.61 183.5,128C 182.552,128.483 181.552,128.649 180.5,128.5C 180.833,131.5 179.5,132.833 176.5,132.5C 176.5,133.5 176.5,134.5 176.5,135.5C 174.647,140.02 171.313,142.687 166.5,143.5C 168.58,141.427 170.246,139.093 171.5,136.5C 174.188,135.976 175.688,134.309 176,131.5C 185.454,123.378 194.287,114.711 202.5,105.5C 203.086,105.709 203.586,106.043 204,106.5C 205.03,113.548 206.197,120.548 207.5,127.5 Z"/></g>
<g><path style="opacity:0.129" fill="#718b90" d="M 14.5,121.5 C 15.9715,125.919 16.6382,130.586 16.5,135.5C 15.1985,131.057 14.5319,126.391 14.5,121.5 Z"/></g>
<g><path style="opacity:1" fill="#916877" d="M 60.5,124.5 C 62.1667,124.5 63.8333,124.5 65.5,124.5C 64.2825,125.161 62.9492,125.828 61.5,126.5C 63.2603,129.212 63.927,132.212 63.5,135.5C 62.6099,132.222 61.6099,128.889 60.5,125.5C 60.5,125.167 60.5,124.833 60.5,124.5 Z"/></g>
<g><path style="opacity:1" fill="#dee4e3" d="M 67.5,126.5 C 68.8333,126.5 70.1667,126.5 71.5,126.5C 71.5,128.5 71.5,130.5 71.5,132.5C 69.5,132.833 67.5,133.167 65.5,133.5C 65.1658,130.812 65.8325,128.479 67.5,126.5 Z"/></g>
<g><path style="opacity:1" fill="#e5e5e4" d="M 83.5,127.5 C 87.553,128.013 91.553,128.846 95.5,130C 96.1383,131.707 96.1383,133.54 95.5,135.5C 91.1235,135.091 86.7902,134.425 82.5,133.5C 82.8333,131.5 83.1667,129.5 83.5,127.5 Z"/></g>
<g><path style="opacity:1" fill="#dedddd" d="M 98.5,130.5 C 103.813,130.018 106.146,132.351 105.5,137.5C 99.0401,138.822 96.7068,136.489 98.5,130.5 Z"/></g>
<g><path style="opacity:1" fill="#370b0d" d="M 92.5,137.5 C 84.475,136.312 76.475,136.312 68.5,137.5C 67.5052,142.792 67.1718,148.125 67.5,153.5C 68.4073,161.92 73.074,164.92 81.5,162.5C 79.7078,163.309 77.7078,163.809 75.5,164C 76.4158,164.278 77.0825,164.778 77.5,165.5C 71.9655,165.603 67.9655,163.27 65.5,158.5C 65.5081,151.328 65.8415,143.994 66.5,136.5C 67.5,136 68.5,135.5 69.5,135C 74.4353,134.824 79.2686,134.657 84,134.5C 86.9494,135.437 89.7827,136.437 92.5,137.5 Z"/></g>
<g><path style="opacity:1" fill="#ebb4c9" d="M 190.5,111.5 C 184.944,116.71 178.277,118.877 170.5,118C 169.5,118.833 168.5,119.667 167.5,120.5C 166.058,129.023 163.724,137.356 160.5,145.5C 157.126,153.25 153.459,160.916 149.5,168.5C 147.139,170.194 145.139,172.194 143.5,174.5C 144.654,170.828 144.821,167.162 144,163.5C 144.333,163.167 144.667,162.833 145,162.5C 145.333,163.833 145.667,165.167 146,166.5C 147.011,165.663 148.178,165.33 149.5,165.5C 149.672,163.508 149.005,161.842 147.5,160.5C 149.045,159.548 150.712,159.215 152.5,159.5C 154.852,152.448 157.519,145.448 160.5,138.5C 160.611,136.891 160.278,135.225 159.5,133.5C 160.766,132.91 162.099,132.41 163.5,132C 162.98,128.596 161.813,125.429 160,122.5C 159.175,118.789 159.341,115.122 160.5,111.5C 161.091,114.64 161.924,117.64 163,120.5C 167.568,116.014 173.068,114.347 179.5,115.5C 179.5,114.167 179.5,112.833 179.5,111.5C 183.389,111.194 187.055,111.194 190.5,111.5 Z"/></g>
<g><path style="opacity:1" fill="#a41116" d="M 42.5,127.5 C 39.7505,135.934 40.0838,144.267 43.5,152.5C 42.5,152.5 41.5,152.5 40.5,152.5C 38.7029,145.97 38.2029,139.304 39,132.5C 39.6972,130.416 40.8639,128.749 42.5,127.5 Z"/></g>
<g><path style="opacity:1" fill="#ca0e15" d="M 26.5,80.5 C 23.9748,84.3035 20.4748,86.6368 16,87.5C 15.5652,95.5202 15.8986,103.52 17,111.5C 19.8112,119.74 21.6445,128.073 22.5,136.5C 22.5,140.5 22.5,144.5 22.5,148.5C 21.3282,143.12 19.9949,137.787 18.5,132.5C 17.4993,125.164 16.4993,117.831 15.5,110.5C 15.3804,104.114 14.7138,97.7808 13.5,91.5C 13.5916,89.7422 13.925,88.0755 14.5,86.5C 14.5,85.8333 14.8333,85.5 15.5,85.5C 19.4834,84.4003 23.15,82.7336 26.5,80.5 Z"/></g>
<g><path style="opacity:1" fill="#f1b3c9" d="M 63.5,75.5 C 62.2341,78.3006 61.4008,81.3006 61,84.5C 59.7949,85.0712 58.6283,85.7379 57.5,86.5C 56.9488,89.0561 55.9488,91.3894 54.5,93.5C 55.8158,99.4677 56.4825,105.301 56.5,111C 55.5838,111.374 54.7504,111.874 54,112.5C 53.5545,117.759 52.3878,122.759 50.5,127.5C 48.6536,127.222 47.3202,127.889 46.5,129.5C 46.5815,132.333 46.7482,135.333 47,138.5C 48.8287,142.511 51.9954,144.178 56.5,143.5C 56.3379,141.473 56.5045,139.473 57,137.5C 57.9745,135.122 58.6411,135.456 59,138.5C 59.3095,137.234 59.8095,136.067 60.5,135C 59.528,132.782 58.8613,130.449 58.5,128C 58.6842,126.624 59.3509,125.791 60.5,125.5C 61.6099,128.889 62.6099,132.222 63.5,135.5C 63.8917,143.201 64.5584,150.868 65.5,158.5C 67.9655,163.27 71.9655,165.603 77.5,165.5C 78.5,165.5 79.5,165.5 80.5,165.5C 78.5662,166.532 76.3995,167.198 74,167.5C 71.4514,166.481 68.9514,166.481 66.5,167.5C 68.1493,168.988 70.1493,169.988 72.5,170.5C 73.2458,171.736 73.5792,173.07 73.5,174.5C 77.3491,174.981 79.3491,173.314 79.5,169.5C 82.8333,169.5 86.1667,169.5 89.5,169.5C 89.6399,171.124 88.9733,172.29 87.5,173C 84.854,173.497 82.1873,173.664 79.5,173.5C 79.33,174.822 79.6634,175.989 80.5,177C 85.286,177.325 89.286,179.159 92.5,182.5C 85.1986,181.013 78.1986,178.68 71.5,175.5C 70.1007,174.11 68.4341,173.11 66.5,172.5C 56.354,165.52 48.5207,156.52 43,145.5C 42.3333,141.167 42.3333,136.833 43,132.5C 48.8462,122.698 51.1795,112.031 50,100.5C 50.4101,99.0993 50.9101,97.766 51.5,96.5C 54.2392,88.6774 58.2392,81.6774 63.5,75.5 Z"/></g>
<g><path style="opacity:1" fill="#600305" d="M 92.5,137.5 C 93.1667,137.5 93.8333,137.5 94.5,137.5C 94.8333,138.167 95.1667,138.833 95.5,139.5C 96.9187,140.451 98.5853,140.784 100.5,140.5C 100.5,141.5 100.5,142.5 100.5,143.5C 96.0438,143.896 95.7105,144.896 99.5,146.5C 99.1667,147.5 98.5,148.167 97.5,148.5C 90.8547,147.795 84.1881,147.128 77.5,146.5C 75.7336,146.434 74.7336,147.268 74.5,149C 74.8361,150.03 75.5028,150.53 76.5,150.5C 76.5,150.833 76.5,151.167 76.5,151.5C 74.3792,151.325 72.3792,151.659 70.5,152.5C 69.391,152.557 68.391,152.89 67.5,153.5C 67.1718,148.125 67.5052,142.792 68.5,137.5C 76.475,136.312 84.475,136.312 92.5,137.5 Z"/></g>
<g><path style="opacity:1" fill="#fab0cb" d="M 159.5,133.5 C 160.278,135.225 160.611,136.891 160.5,138.5C 157.519,145.448 154.852,152.448 152.5,159.5C 150.712,159.215 149.045,159.548 147.5,160.5C 149.005,161.842 149.672,163.508 149.5,165.5C 148.178,165.33 147.011,165.663 146,166.5C 145.667,165.167 145.333,163.833 145,162.5C 144.667,162.833 144.333,163.167 144,163.5C 144.821,167.162 144.654,170.828 143.5,174.5C 136.814,180.673 129.147,185.007 120.5,187.5C 110.718,187.617 101.385,185.951 92.5,182.5C 89.286,179.159 85.286,177.325 80.5,177C 79.6634,175.989 79.33,174.822 79.5,173.5C 82.1873,173.664 84.854,173.497 87.5,173C 88.9733,172.29 89.6399,171.124 89.5,169.5C 86.1667,169.5 82.8333,169.5 79.5,169.5C 79.3491,173.314 77.3491,174.981 73.5,174.5C 73.5792,173.07 73.2458,171.736 72.5,170.5C 70.1493,169.988 68.1493,168.988 66.5,167.5C 68.9514,166.481 71.4514,166.481 74,167.5C 76.3995,167.198 78.5662,166.532 80.5,165.5C 85.4416,164.909 90.1082,163.409 94.5,161C 98.4749,156.843 101.808,152.343 104.5,147.5C 106.288,147.785 107.955,147.452 109.5,146.5C 107.721,144.807 107.221,142.807 108,140.5C 108.423,141.956 109.256,142.456 110.5,142C 109.62,140.644 109.286,139.144 109.5,137.5C 114.851,138.415 119.851,137.248 124.5,134C 125.833,133 125.833,132 124.5,131C 122.275,130.439 120.275,129.439 118.5,128C 121.438,126.045 124.271,126.212 127,128.5C 128.289,125.649 128.789,122.649 128.5,119.5C 138.5,119.5 148.5,119.5 158.5,119.5C 158.421,122.271 158.921,124.937 160,127.5C 160.654,126.304 161.154,126.304 161.5,127.5C 160.975,128.192 160.308,128.692 159.5,129C 160.413,130.414 160.413,131.914 159.5,133.5 Z"/></g>
<g><path style="opacity:1" fill="#451116" d="M 47.5,89.5 C 48.1667,90.1667 48.8333,90.8333 49.5,91.5C 49.8417,92.3382 50.5084,92.6716 51.5,92.5C 50.3143,93.9613 50.3143,95.2946 51.5,96.5C 50.9101,97.766 50.4101,99.0993 50,100.5C 51.1795,112.031 48.8462,122.698 43,132.5C 42.3333,136.833 42.3333,141.167 43,145.5C 48.5207,156.52 56.354,165.52 66.5,172.5C 66.5,173.167 66.5,173.833 66.5,174.5C 61.3479,170.749 56.3479,166.749 51.5,162.5C 48.6569,159.282 45.9902,155.949 43.5,152.5C 40.0838,144.267 39.7505,135.934 42.5,127.5C 43.8846,126.426 45.0513,125.093 46,123.5C 47.4093,112.23 47.9093,100.896 47.5,89.5 Z"/></g>
<g><path style="opacity:1" fill="#4f0607" d="M 95.5,139.5 C 103.11,137.936 105.277,140.603 102,147.5C 100.955,148.373 100.122,149.373 99.5,150.5C 91.8333,150.5 84.1667,150.5 76.5,150.5C 75.5028,150.53 74.8361,150.03 74.5,149C 74.7336,147.268 75.7336,146.434 77.5,146.5C 84.1881,147.128 90.8547,147.795 97.5,148.5C 98.5,148.167 99.1667,147.5 99.5,146.5C 95.7105,144.896 96.0438,143.896 100.5,143.5C 100.5,142.5 100.5,141.5 100.5,140.5C 98.5853,140.784 96.9187,140.451 95.5,139.5 Z"/></g>
<g><path style="opacity:1" fill="#891513" d="M 166.5,143.5 C 163.802,146.638 161.469,149.971 159.5,153.5C 160.108,150.673 161.108,148.007 162.5,145.5C 163.605,144.4 164.938,143.733 166.5,143.5 Z"/></g>
<g><path style="opacity:1" fill="#da0203" d="M 202.5,116.5 C 204.84,129.366 207.507,142.366 210.5,155.5C 210.284,158.256 209.284,160.59 207.5,162.5C 205.692,162.491 204.025,162.991 202.5,164C 199.959,166.746 197.293,169.246 194.5,171.5C 192.5,171.5 191.5,172.5 191.5,174.5C 186.378,176.205 181.045,177.538 175.5,178.5C 175.5,179.833 175.5,181.167 175.5,182.5C 169.166,183.858 163.833,186.858 159.5,191.5C 152.819,193.171 148.152,197.171 145.5,203.5C 142.575,206.863 140.908,210.863 140.5,215.5C 139.726,216.711 138.893,216.711 138,215.5C 137.463,209.986 135.963,204.986 133.5,200.5C 133.69,197.842 134.357,195.342 135.5,193C 134.331,189.689 135.664,188.189 139.5,188.5C 139.5,186.833 139.5,185.167 139.5,183.5C 142.387,182.38 145.387,181.38 148.5,180.5C 151.281,175.704 153.615,170.704 155.5,165.5C 157.442,161.673 158.776,157.673 159.5,153.5C 161.469,149.971 163.802,146.638 166.5,143.5C 171.313,142.687 174.647,140.02 176.5,135.5C 176.753,137.827 176.086,139.827 174.5,141.5C 175.246,142.736 175.579,144.07 175.5,145.5C 172.873,144.908 170.206,144.575 167.5,144.5C 167.5,145.5 167.5,146.5 167.5,147.5C 168.833,147.5 170.167,147.5 171.5,147.5C 169.487,151.84 167.487,156.174 165.5,160.5C 166.833,160.5 168.167,160.5 169.5,160.5C 170.665,157.307 172.331,154.307 174.5,151.5C 174.833,152.333 175.167,153.167 175.5,154C 174.382,156.059 173.715,158.226 173.5,160.5C 174.822,160.67 175.989,160.337 177,159.5C 181.254,163.483 185.587,163.483 190,159.5C 190.739,160.574 191.739,161.241 193,161.5C 194.365,160.544 195.865,159.878 197.5,159.5C 200.437,159.586 203.437,159.92 206.5,160.5C 206.5,158.833 206.5,157.167 206.5,155.5C 209.718,155.349 210.051,154.516 207.5,153C 207.833,152.667 208.167,152.333 208.5,152C 205.603,145.649 203.27,138.982 201.5,132C 202.471,126.928 202.805,121.762 202.5,116.5 Z"/></g>
<g><path style="opacity:1" fill="#d53e40" d="M 76.5,151.5 C 82.8333,151.5 89.1667,151.5 95.5,151.5C 95.5,152.833 95.5,154.167 95.5,155.5C 91.348,157.611 87.0147,159.444 82.5,161C 79.1667,161.667 75.8333,161.667 72.5,161C 69.4743,158.702 68.8076,155.869 70.5,152.5C 72.3792,151.659 74.3792,151.325 76.5,151.5 Z"/></g>
<g><path style="opacity:1" fill="#460c11" d="M 160.5,145.5 C 161.167,145.5 161.833,145.5 162.5,145.5C 161.108,148.007 160.108,150.673 159.5,153.5C 156.341,158.484 153.674,163.818 151.5,169.5C 149.861,171.806 147.861,173.806 145.5,175.5C 146.833,173.167 148.167,170.833 149.5,168.5C 153.459,160.916 157.126,153.25 160.5,145.5 Z"/></g>
<g><path style="opacity:1" fill="#a84549" d="M 76.5,151.5 C 76.5,151.167 76.5,150.833 76.5,150.5C 84.1667,150.5 91.8333,150.5 99.5,150.5C 97.9646,154.959 94.9646,158.125 90.5,160C 87.6473,161.43 84.6473,162.263 81.5,162.5C 73.074,164.92 68.4073,161.92 67.5,153.5C 68.391,152.89 69.391,152.557 70.5,152.5C 68.8076,155.869 69.4743,158.702 72.5,161C 75.8333,161.667 79.1667,161.667 82.5,161C 87.0147,159.444 91.348,157.611 95.5,155.5C 95.5,154.167 95.5,152.833 95.5,151.5C 89.1667,151.5 82.8333,151.5 76.5,151.5 Z"/></g>
<g><path style="opacity:1" fill="#a71117" d="M 43.5,152.5 C 45.9902,155.949 48.6569,159.282 51.5,162.5C 51.7329,164.062 52.3995,165.395 53.5,166.5C 52.7611,166.631 52.0944,166.464 51.5,166C 47.309,162.33 44.6424,157.83 43.5,152.5 Z"/></g>
<g><path style="opacity:1" fill="#87141c" d="M 209.5,143.5 C 212.013,147.378 213.346,151.711 213.5,156.5C 212.508,159.363 210.508,161.363 207.5,162.5C 209.284,160.59 210.284,158.256 210.5,155.5C 211.139,154.903 211.472,154.07 211.5,153C 210.517,149.888 209.85,146.722 209.5,143.5 Z"/></g>
<g><path style="opacity:1" fill="#de0202" d="M 45.5,89.5 C 46.1638,91.8097 46.4971,94.3097 46.5,97C 46,104.5 45.5,112 45,119.5C 42.9771,121.769 42.1437,124.436 42.5,127.5C 40.8639,128.749 39.6972,130.416 39,132.5C 38.2029,139.304 38.7029,145.97 40.5,152.5C 41.5,152.5 42.5,152.5 43.5,152.5C 44.6424,157.83 47.309,162.33 51.5,166C 52.0944,166.464 52.7611,166.631 53.5,166.5C 53.8333,169.5 52.5,170.833 49.5,170.5C 49.938,174.908 47.938,176.575 43.5,175.5C 43.423,178.509 44.7563,180.676 47.5,182C 45.5395,185.215 44.3728,188.715 44,192.5C 43.586,192.043 43.086,191.709 42.5,191.5C 41.7964,188.296 41.1298,185.129 40.5,182C 38.0389,181.971 35.3722,181.804 32.5,181.5C 32.5323,179.381 31.5323,178.048 29.5,177.5C 25.1002,168.356 22.7669,158.689 22.5,148.5C 22.5,144.5 22.5,140.5 22.5,136.5C 23.1499,136.196 23.8165,135.863 24.5,135.5C 25.4742,137.743 25.8076,140.076 25.5,142.5C 27.1439,142.286 28.6439,142.62 30,143.5C 30.49,142.207 30.6567,140.873 30.5,139.5C 31.675,139.719 32.675,139.386 33.5,138.5C 34.8653,135.295 35.8653,131.961 36.5,128.5C 37.4255,129.641 38.2588,129.641 39,128.5C 38.7779,124.708 40.1113,121.708 43,119.5C 43.3496,109.342 44.1829,99.3421 45.5,89.5 Z"/></g>
<g><path style="opacity:1" fill="#280e10" d="M 94.5,137.5 C 98.6027,138.62 102.603,138.953 106.5,138.5C 105.833,141.5 105.167,144.5 104.5,147.5C 101.808,152.343 98.4749,156.843 94.5,161C 90.1082,163.409 85.4416,164.909 80.5,165.5C 79.5,165.5 78.5,165.5 77.5,165.5C 77.0825,164.778 76.4158,164.278 75.5,164C 77.7078,163.809 79.7078,163.309 81.5,162.5C 84.6473,162.263 87.6473,161.43 90.5,160C 94.9646,158.125 97.9646,154.959 99.5,150.5C 100.122,149.373 100.955,148.373 102,147.5C 105.277,140.603 103.11,137.936 95.5,139.5C 95.1667,138.833 94.8333,138.167 94.5,137.5 Z"/></g>
<g><path style="opacity:1" fill="#961417" d="M 159.5,153.5 C 158.776,157.673 157.442,161.673 155.5,165.5C 154.167,166.833 152.833,168.167 151.5,169.5C 153.674,163.818 156.341,158.484 159.5,153.5 Z"/></g>
<g><path style="opacity:1" fill="#8f1615" d="M 207.5,162.5 C 205.899,164.853 203.899,167.02 201.5,169C 198.97,169.379 196.637,170.213 194.5,171.5C 197.293,169.246 199.959,166.746 202.5,164C 204.025,162.991 205.692,162.491 207.5,162.5 Z"/></g>
<g><path style="opacity:1" fill="#7c0f13" d="M 51.5,162.5 C 56.3479,166.749 61.3479,170.749 66.5,174.5C 66.5,177.5 66.5,180.5 66.5,183.5C 65.6862,181.369 65.1862,179.036 65,176.5C 61.2287,173.041 57.3954,169.708 53.5,166.5C 52.3995,165.395 51.7329,164.062 51.5,162.5 Z"/></g>
<g><path style="opacity:1" fill="#d20203" d="M 53.5,166.5 C 57.3954,169.708 61.2287,173.041 65,176.5C 65.1862,179.036 65.6862,181.369 66.5,183.5C 67.8333,191.5 67.8333,199.5 66.5,207.5C 64.1257,212.797 63.1257,218.463 63.5,224.5C 60.5,224.5 57.5,224.5 54.5,224.5C 54.8132,217.245 54.4799,210.079 53.5,203C 51.8876,202.28 50.3876,202.446 49,203.5C 48.6667,209.167 48.3333,214.833 48,220.5C 46.4912,218.081 44.3245,217.081 41.5,217.5C 38.0434,207.116 35.5434,196.45 34,185.5C 32.5952,184.269 31.4286,182.936 30.5,181.5C 30.1667,180.167 29.8333,178.833 29.5,177.5C 31.5323,178.048 32.5323,179.381 32.5,181.5C 35.3722,181.804 38.0389,181.971 40.5,182C 41.1298,185.129 41.7964,188.296 42.5,191.5C 43.086,191.709 43.586,192.043 44,192.5C 44.3728,188.715 45.5395,185.215 47.5,182C 44.7563,180.676 43.423,178.509 43.5,175.5C 47.938,176.575 49.938,174.908 49.5,170.5C 52.5,170.833 53.8333,169.5 53.5,166.5 Z"/></g>
<g><path style="opacity:1" fill="#8c1217" d="M 18.5,132.5 C 19.9949,137.787 21.3282,143.12 22.5,148.5C 22.7669,158.689 25.1002,168.356 29.5,177.5C 29.8333,178.833 30.1667,180.167 30.5,181.5C 28.5486,179.52 27.0486,177.187 26,174.5C 21.6332,160.833 19.1332,146.833 18.5,132.5 Z"/></g>
<g><path style="opacity:1" fill="#b90f18" d="M 191.5,174.5 C 188.23,175.598 185.23,177.264 182.5,179.5C 179.978,180.011 177.645,181.011 175.5,182.5C 175.5,181.167 175.5,179.833 175.5,178.5C 181.045,177.538 186.378,176.205 191.5,174.5 Z"/></g>
<g><path style="opacity:1" fill="#a81114" d="M 175.5,182.5 C 173.19,183.325 171.19,184.658 169.5,186.5C 166.636,189.014 163.302,190.68 159.5,191.5C 163.833,186.858 169.166,183.858 175.5,182.5 Z"/></g>
<g><path style="opacity:0.51" fill="#3b2e2f" d="M 213.5,156.5 C 214.71,156.932 215.71,157.599 216.5,158.5C 212.135,162.874 207.469,167.041 202.5,171C 189.595,178.755 176.595,186.255 163.5,193.5C 161.973,193.427 160.973,194.094 160.5,195.5C 156.903,197.756 153.569,200.423 150.5,203.5C 149.883,203.611 149.383,203.944 149,204.5C 148.454,211.184 148.62,217.851 149.5,224.5C 148.833,224.5 148.167,224.5 147.5,224.5C 146.693,217.846 146.526,211.18 147,204.5C 151.298,200.273 155.465,195.94 159.5,191.5C 163.302,190.68 166.636,189.014 169.5,186.5C 174.607,185.449 178.941,183.115 182.5,179.5C 185.23,177.264 188.23,175.598 191.5,174.5C 191.5,172.5 192.5,171.5 194.5,171.5C 196.637,170.213 198.97,169.379 201.5,169C 203.899,167.02 205.899,164.853 207.5,162.5C 210.508,161.363 212.508,159.363 213.5,156.5 Z"/></g>
<g><path style="opacity:1" fill="#2f0b0b" d="M 149.5,168.5 C 148.167,170.833 146.833,173.167 145.5,175.5C 144.833,175.5 144.5,175.833 144.5,176.5C 142.447,177.534 140.78,179.034 139.5,181C 134.5,183.5 129.5,186 124.5,188.5C 122.813,195.338 123.813,201.671 127.5,207.5C 127.375,213.203 127.708,218.87 128.5,224.5C 127.833,224.5 127.167,224.5 126.5,224.5C 126.355,215.965 125.022,207.631 122.5,199.5C 123.089,195.029 122.423,191.029 120.5,187.5C 129.147,185.007 136.814,180.673 143.5,174.5C 145.139,172.194 147.139,170.194 149.5,168.5 Z"/></g>
<g><path style="opacity:0.969" fill="#5c070d" d="M 182.5,179.5 C 178.941,183.115 174.607,185.449 169.5,186.5C 171.19,184.658 173.19,183.325 175.5,182.5C 177.645,181.011 179.978,180.011 182.5,179.5 Z"/></g>
<g><path style="opacity:1" fill="#891218" d="M 30.5,181.5 C 31.4286,182.936 32.5952,184.269 34,185.5C 35.5434,196.45 38.0434,207.116 41.5,217.5C 39.7182,216.009 38.0516,214.342 36.5,212.5C 36.5,211.5 36.5,210.5 36.5,209.5C 35.2074,203.58 34.3741,197.58 34,191.5C 32.9103,188.061 31.7436,184.727 30.5,181.5 Z"/></g>
<g><path style="opacity:1" fill="#30100f" d="M 66.5,172.5 C 68.4341,173.11 70.1007,174.11 71.5,175.5C 70.5084,175.328 69.8417,175.662 69.5,176.5C 68.8476,177.449 68.5143,178.615 68.5,180C 71.4207,195.024 70.754,209.858 66.5,224.5C 66.1667,224.5 65.8333,224.5 65.5,224.5C 66.0318,218.848 66.3651,213.181 66.5,207.5C 67.8333,199.5 67.8333,191.5 66.5,183.5C 66.5,180.5 66.5,177.5 66.5,174.5C 66.5,173.833 66.5,173.167 66.5,172.5 Z"/></g>
<g><path style="opacity:1" fill="#cc0305" d="M 155.5,165.5 C 153.615,170.704 151.281,175.704 148.5,180.5C 145.387,181.38 142.387,182.38 139.5,183.5C 139.5,185.167 139.5,186.833 139.5,188.5C 135.664,188.189 134.331,189.689 135.5,193C 134.357,195.342 133.69,197.842 133.5,200.5C 135.963,204.986 137.463,209.986 138,215.5C 138.893,216.711 139.726,216.711 140.5,215.5C 140.908,210.863 142.575,206.863 145.5,203.5C 145.5,210.5 145.5,217.5 145.5,224.5C 140.833,224.5 136.167,224.5 131.5,224.5C 131.665,221.482 131.498,218.482 131,215.5C 129.325,212.949 128.159,210.283 127.5,207.5C 126.838,203.843 126.171,200.176 125.5,196.5C 125.753,194.142 126.086,191.808 126.5,189.5C 129.55,190.077 131.55,188.91 132.5,186C 136.032,184.818 139.366,183.152 142.5,181C 143.582,179.67 144.249,178.17 144.5,176.5C 144.5,175.833 144.833,175.5 145.5,175.5C 147.861,173.806 149.861,171.806 151.5,169.5C 152.833,168.167 154.167,166.833 155.5,165.5 Z"/></g>
<g><path style="opacity:1" fill="#8e1213" d="M 144.5,176.5 C 144.249,178.17 143.582,179.67 142.5,181C 139.366,183.152 136.032,184.818 132.5,186C 131.55,188.91 129.55,190.077 126.5,189.5C 126.086,191.808 125.753,194.142 125.5,196.5C 126.171,200.176 126.838,203.843 127.5,207.5C 123.813,201.671 122.813,195.338 124.5,188.5C 129.5,186 134.5,183.5 139.5,181C 140.78,179.034 142.447,177.534 144.5,176.5 Z"/></g>
<g><path style="opacity:0.008" fill="#aec0ca" d="M 163.5,193.5 C 163.027,194.906 162.027,195.573 160.5,195.5C 160.973,194.094 161.973,193.427 163.5,193.5 Z"/></g>
<g><path style="opacity:1" fill="#131111" d="M 69.5,176.5 C 69.8417,175.662 70.5084,175.328 71.5,175.5C 78.1986,178.68 85.1986,181.013 92.5,182.5C 101.385,185.951 110.718,187.617 120.5,187.5C 122.423,191.029 123.089,195.029 122.5,199.5C 121.521,196.375 121.187,193.042 121.5,189.5C 119.167,189.5 116.833,189.5 114.5,189.5C 113.438,196.299 111.771,202.966 109.5,209.5C 110.973,214.586 112.64,219.586 114.5,224.5C 113.833,224.5 113.167,224.5 112.5,224.5C 110.12,219.233 108.453,213.733 107.5,208C 107.482,205.621 108.149,203.454 109.5,201.5C 109,201.167 108.5,200.833 108,200.5C 103.024,202.705 97.857,203.538 92.5,203C 87.0113,199.175 82.5113,194.342 79,188.5C 79.9653,193.39 80.7986,198.39 81.5,203.5C 80.4166,210.582 79.0832,217.582 77.5,224.5C 76.8333,224.5 76.1667,224.5 75.5,224.5C 76.9912,217.534 78.3245,210.534 79.5,203.5C 78.9191,198.09 77.9191,192.757 76.5,187.5C 76.6299,185.625 76.9633,183.792 77.5,182C 75.3561,179.426 72.6894,177.593 69.5,176.5 Z"/></g>
<g><path style="opacity:1" fill="#e9e8e8" d="M 79.5,181.5 C 90.1764,185.436 101.176,188.103 112.5,189.5C 112.658,192.545 111.991,195.379 110.5,198C 105.167,198.667 99.8333,198.667 94.5,198C 91.9664,197.484 89.7998,196.317 88,194.5C 85.6298,189.731 82.7965,185.398 79.5,181.5 Z"/></g>
<g><path style="opacity:1" fill="#9d1015" d="M 159.5,191.5 C 155.465,195.94 151.298,200.273 147,204.5C 146.526,211.18 146.693,217.846 147.5,224.5C 146.833,224.5 146.167,224.5 145.5,224.5C 145.5,217.5 145.5,210.5 145.5,203.5C 148.152,197.171 152.819,193.171 159.5,191.5 Z"/></g>
<g><path style="opacity:0.137" fill="#6d9da1" d="M 31.5,191.5 C 33.0538,195.567 33.7204,199.9 33.5,204.5C 32.2911,200.382 31.6245,196.049 31.5,191.5 Z"/></g>
<g><path style="opacity:1" fill="#8c8c8b" d="M 69.5,176.5 C 72.6894,177.593 75.3561,179.426 77.5,182C 76.9633,183.792 76.6299,185.625 76.5,187.5C 77.9191,192.757 78.9191,198.09 79.5,203.5C 78.3245,210.534 76.9912,217.534 75.5,224.5C 72.5,224.5 69.5,224.5 66.5,224.5C 70.754,209.858 71.4207,195.024 68.5,180C 68.5143,178.615 68.8476,177.449 69.5,176.5 Z"/></g>
<g><path style="opacity:1" fill="#f2f2f2" d="M 112.5,224.5 C 108.167,224.5 103.833,224.5 99.5,224.5C 100.915,222.656 102.581,221.989 104.5,222.5C 105.393,219.916 105.726,217.249 105.5,214.5C 103.516,214.617 101.85,213.95 100.5,212.5C 96.6288,215.576 94.9621,219.576 95.5,224.5C 89.5,224.5 83.5,224.5 77.5,224.5C 79.0832,217.582 80.4166,210.582 81.5,203.5C 80.7986,198.39 79.9653,193.39 79,188.5C 82.5113,194.342 87.0113,199.175 92.5,203C 97.857,203.538 103.024,202.705 108,200.5C 108.5,200.833 109,201.167 109.5,201.5C 108.149,203.454 107.482,205.621 107.5,208C 108.453,213.733 110.12,219.233 112.5,224.5 Z"/></g>
<g><path style="opacity:1" fill="#8c8c8c" d="M 122.5,199.5 C 125.022,207.631 126.355,215.965 126.5,224.5C 122.5,224.5 118.5,224.5 114.5,224.5C 112.64,219.586 110.973,214.586 109.5,209.5C 111.771,202.966 113.438,196.299 114.5,189.5C 116.833,189.5 119.167,189.5 121.5,189.5C 121.187,193.042 121.521,196.375 122.5,199.5 Z"/></g>
<g><path style="opacity:0.882" fill="#546e73" d="M 33.5,205.5 C 34.1429,207.076 35.1429,208.41 36.5,209.5C 36.5,210.5 36.5,211.5 36.5,212.5C 36.6287,214.216 36.962,215.883 37.5,217.5C 34.8037,214.079 33.4703,210.079 33.5,205.5 Z"/></g>
<g><path style="opacity:1" fill="#171717" d="M 99.5,224.5 C 98.1667,224.5 96.8333,224.5 95.5,224.5C 94.9621,219.576 96.6288,215.576 100.5,212.5C 101.85,213.95 103.516,214.617 105.5,214.5C 105.726,217.249 105.393,219.916 104.5,222.5C 102.581,221.989 100.915,222.656 99.5,224.5 Z"/></g>
<g><path style="opacity:0.808" fill="#25171e" d="M 36.5,212.5 C 38.0516,214.342 39.7182,216.009 41.5,217.5C 43.5,219.833 45.5,222.167 47.5,224.5C 46.8333,224.5 46.1667,224.5 45.5,224.5C 44.0892,222.086 42.0892,220.419 39.5,219.5C 38.5,219.167 37.8333,218.5 37.5,217.5C 36.962,215.883 36.6287,214.216 36.5,212.5 Z"/></g>
<g><path style="opacity:1" fill="#a30e11" d="M 54.5,224.5 C 53.8333,224.5 53.1667,224.5 52.5,224.5C 51.8333,196.5 51.1667,196.5 50.5,224.5C 49.5,224.5 48.5,224.5 47.5,224.5C 45.5,222.167 43.5,219.833 41.5,217.5C 44.3245,217.081 46.4912,218.081 48,220.5C 48.3333,214.833 48.6667,209.167 49,203.5C 50.3876,202.446 51.8876,202.28 53.5,203C 54.4799,210.079 54.8132,217.245 54.5,224.5 Z"/></g>
<g><path style="opacity:1" fill="#5a0000" d="M 52.5,224.5 C 51.8333,224.5 51.1667,224.5 50.5,224.5C 51.1667,196.5 51.8333,196.5 52.5,224.5 Z"/></g>
<g><path style="opacity:1" fill="#a10e0f" d="M 127.5,207.5 C 128.159,210.283 129.325,212.949 131,215.5C 131.498,218.482 131.665,221.482 131.5,224.5C 130.5,224.5 129.5,224.5 128.5,224.5C 127.708,218.87 127.375,213.203 127.5,207.5 Z"/></g>
<g><path style="opacity:0.067" fill="#9bbac1" d="M 150.5,203.5 C 149.116,210.568 149.45,217.568 151.5,224.5C 150.833,224.5 150.167,224.5 149.5,224.5C 148.62,217.851 148.454,211.184 149,204.5C 149.383,203.944 149.883,203.611 150.5,203.5 Z"/></g>
<g><path style="opacity:0.18" fill="#709399" d="M 39.5,219.5 C 42.0892,220.419 44.0892,222.086 45.5,224.5C 44.8333,224.5 44.1667,224.5 43.5,224.5C 42.1667,222.833 40.8333,221.167 39.5,219.5 Z"/></g>
<g><path style="opacity:1" fill="#911314" d="M 66.5,207.5 C 66.3651,213.181 66.0318,218.848 65.5,224.5C 64.8333,224.5 64.1667,224.5 63.5,224.5C 63.1257,218.463 64.1257,212.797 66.5,207.5 Z"/></g>
</svg>
